<?xml version="1.0" encoding="UTF-8"?>
<svg id="Capa_2" data-name="Capa 2" xmlns="http://www.w3.org/2000/svg" viewBox="0 0 168 168">
  <defs>
    <style>
      .cls-1 {
        fill: #f0e6fb;
      }
    </style>
  </defs>
  <g id="Capa_13" data-name="Capa 13">
    <path class="cls-1" d="M167.88,11.14c-.17,3.08-.57,7.04-1.48,11.57-.46,2.3-1.18,5.86-2.6,9.77-1.14,3.11-4.45,11.9-13.04,19.71-4.38,4-8.43,6.18-11.96,8.09-6.62,3.57-12.33,5.33-16.58,6.61-5.42,1.64-10.1,2.6-13.58,3.18.57,2.1,3.18,13.17,3.99,17.93,1.34,7.87,4.88,28.74-7.29,43.85-4.71,5.84-10.24,8.95-12.86,10.25-12.29,6.13-25.06,4.33-38.21,2.48-2.82-.4-5.42-.87-7.77-1.35-2.36-.08-5.67.04-9.51.89-.89.2-5.06,1.16-9.98,3.76-.81.42-4.7,2.5-8.96,6.31-2.57,2.3-4.2,4.3-6.54,7.15-2.17,2.64-3.85,4.95-5.04,6.66-.41-.98-.82-2.06-1.19-3.23-.49-1.53-.84-2.97-1.09-4.28-2.86-8.68-5.24-20.49-3.71-34.05.64-5.63,1.63-13.72,6.71-22.79,1.73-3.09,4.87-8.56,11.12-13.71,7.57-6.24,15.55-8.59,18.41-9.41,2.58-.73,5.29-1.28,9.19-2.07,1.23-.24,5.17-1.02,11.44-2,4.01-.63,9.23-1.37,15.42-2.08.01-3.41-.02-7.11-.07-11.24-.16-12.21-.4-17.51.68-26.23.99-8.12,2.48-14.02,6.18-19.91,2.78-4.42,5.97-7.53,8.3-9.49,1.58-1.33,10.7-8.09,23.37-7.33,3.25.19,5.91.83,7.69,1.38,5.91,1.72,11.02,2.7,14.92,3.29,3.84.58,7.45,1.11,12.34,1.02,2.78-.05,6.1-.11,10.27-1.12,4.69-1.14,8.47-3,11.28-4.75.34,4.18.33,7.94.15,11.14Z"/>
  </g>
</svg>