<?xml version="1.0" encoding="UTF-8"?>
<svg id="Capa_2" data-name="Capa 2" xmlns="http://www.w3.org/2000/svg" xmlns:xlink="http://www.w3.org/1999/xlink" viewBox="0 0 196 232">
  <defs>
    <style>
      .cls-1 {
        fill: url(#Degradado_sin_nombre_28);
      }

      .cls-2 {
        fill: url(#Degradado_sin_nombre_19);
      }

      .cls-3 {
        fill: url(#Degradado_sin_nombre_26);
      }

      .cls-4 {
        fill: #f0e6fb;
      }

      .cls-5 {
        fill: url(#Degradado_sin_nombre_4);
      }
    </style>
    <linearGradient id="Degradado_sin_nombre_26" data-name="Degradado sin nombre 26" x1="-66.46" y1="236.82" x2="27.15" y2="163.11" gradientTransform="translate(31.56 -42.73) rotate(-9)" gradientUnits="userSpaceOnUse">
      <stop offset="0" stop-color="#fff"/>
      <stop offset=".14" stop-color="#eae9ec"/>
      <stop offset=".47" stop-color="#c1bfc7"/>
      <stop offset=".72" stop-color="#a8a4b0"/>
      <stop offset=".87" stop-color="#9f9ba8"/>
    </linearGradient>
    <linearGradient id="Degradado_sin_nombre_28" data-name="Degradado sin nombre 28" x1="71.56" y1="114.59" x2="150.27" y2="83.11" gradientTransform="translate(31.56 -42.73) rotate(-9)" gradientUnits="userSpaceOnUse">
      <stop offset="0" stop-color="#ada9b7"/>
      <stop offset=".28" stop-color="#cdcad3"/>
      <stop offset=".56" stop-color="#e8e7eb"/>
      <stop offset=".82" stop-color="#f9f8f9"/>
      <stop offset="1" stop-color="#fff"/>
    </linearGradient>
    <linearGradient id="Degradado_sin_nombre_4" data-name="Degradado sin nombre 4" x1="24.93" y1="235.23" x2="55.13" y2="61.05" gradientTransform="translate(31.56 -42.73) rotate(-9)" gradientUnits="userSpaceOnUse">
      <stop offset="0" stop-color="#c1bacc"/>
      <stop offset="1" stop-color="#fff"/>
    </linearGradient>
    <linearGradient id="Degradado_sin_nombre_19" data-name="Degradado sin nombre 19" x1="-64.16" y1="271.8" x2="-24.94" y2="233.08" gradientTransform="translate(31.56 -42.73) rotate(-9)" gradientUnits="userSpaceOnUse">
      <stop offset="0" stop-color="#fff"/>
      <stop offset=".36" stop-color="#dcddde"/>
      <stop offset="1" stop-color="#a1a3a8"/>
    </linearGradient>
  </defs>
  <g id="Capa_13" data-name="Capa 13">
    <g>
      <path class="cls-4" d="M195.95,14.17c.12,3.94.06,9.03-.59,14.9-.32,2.98-.83,7.6-2.18,12.73-1.08,4.09-4.25,15.65-14.1,26.56-5.02,5.58-9.83,8.81-14.01,11.64-7.86,5.29-14.77,8.17-19.93,10.27-6.57,2.69-12.29,4.44-16.56,5.57.94,2.61,5.39,16.42,6.92,22.39,2.52,9.87,9.2,36.06-4.31,56.67-5.23,7.96-11.78,12.54-14.9,14.49-14.64,9.18-30.73,8.32-47.31,7.43-3.55-.19-6.84-.5-9.82-.85-2.95.16-7.06.68-11.75,2.2-1.09.35-6.17,2.04-12.02,5.9-.96.63-5.58,3.71-10.47,9.04-2.95,3.22-4.76,5.95-7.37,9.84-2.42,3.61-4.26,6.74-5.55,9.05-.62-1.2-1.24-2.53-1.83-3.98-.78-1.89-1.37-3.69-1.82-5.33C3.85,211.95-.4,197.18.03,179.73c.19-7.24.54-17.66,5.88-29.78,1.82-4.13,5.13-11.45,12.36-18.7,8.75-8.79,18.43-12.68,21.9-14.04,3.13-1.22,6.45-2.22,11.22-3.66,1.51-.44,6.33-1.88,14.03-3.83,4.92-1.25,11.34-2.78,18.98-4.37-.36-4.34-.8-9.05-1.31-14.31-1.53-15.53-2.4-22.26-2-33.49.35-10.45,1.56-18.13,5.53-26.05,2.98-5.94,6.62-10.26,9.3-13.01,1.82-1.87,12.44-11.5,28.3-11.95,4.07-.12,7.45.4,9.73.9,7.55,1.53,14.02,2.21,18.94,2.52,4.84.31,9.4.58,15.48-.08,3.46-.37,7.58-.82,12.67-2.57,5.72-1.98,10.22-4.77,13.53-7.31.88,5.29,1.27,10.08,1.4,14.17Z"/>
      <g>
        <g>
          <path class="cls-3" d="M8.34,222.68C3.84,211.95-.4,197.17.03,179.73c.18-7.24.54-17.66,5.88-29.78,1.82-4.12,5.13-11.44,12.36-18.71,8.74-8.79,18.42-12.67,21.9-14.03,3.13-1.22,6.44-2.23,11.21-3.66,1.51-.45,6.33-1.89,14.03-3.83,4.93-1.24,11.35-2.78,18.98-4.37.48,5.36.76,9.92.94,13.44.11,2.18.26,5.07.34,8.92.05,2.49.12,5.92,0,10.32-.15,5.6-.23,8.62-.85,12.82-.71,4.72-1.71,8.26-2.13,9.71-.76,2.56-2.15,6.71-4.39,11.07-1.48,2.88-2.74,4.71-3.44,5.68-.54.75-1.15,1.54-1.84,2.35-2.56,3.02-5.04,5.03-6.12,5.86-.6.46-3.51,2.68-7.98,4.77-2.75,1.29-6.74,2.83-11.81,3.75-.91-.2-2.22-.44-3.8-.64-2.83-.34-6.86-.83-11.75.21-1.75.37-7.02,1.66-12.07,5.7-.94.75-2.88,2.42-4.83,4.96-.37.48-1.71,2.27-3.03,4.88-1.42,2.82-2.08,5.18-2.33,6.13-.72,2.75-.95,5.27-.96,7.4Z"/>
          <path class="cls-1" d="M133.95,7.43c-2.4.01-7.17.37-12.16,3.17-1.93,1.09-4.64,2.96-7.03,5.96-3.08,3.87-4.1,7.72-4.52,9.4-3.68,14.54,5.61,37.55,13.04,55.98.23.56.97,2.39,1.94,4.9,1.5,3.86,2.65,7,3.37,9.01,4.27-1.13,10-2.88,16.56-5.56,5.16-2.11,12.07-4.99,19.93-10.28,4.19-2.82,8.99-6.06,14.02-11.63,9.84-10.92,13.01-22.47,14.09-26.57,1.35-5.14,1.85-9.75,2.18-12.74.64-5.87.71-10.95.58-14.89-.13-4.11-.52-8.89-1.4-14.17-3.31,2.54-7.81,5.33-13.53,7.3-5.08,1.75-9.21,2.2-12.67,2.58-6.07.66-10.63.39-15.48.08-4.91-.31-11.38-.99-18.93-2.53Z"/>
          <path class="cls-5" d="M120.56,74.95c.46,1.25,2.78,6.69,5.66,14.4,0,0,0,0,0,.02,0,0,1.26,3.44,2.36,6.48.94,2.6,5.39,16.42,6.92,22.4,2.52,9.86,9.2,36.05-4.32,56.66-5.22,7.97-11.78,12.54-14.9,14.5-14.63,9.18-30.74,8.31-47.31,7.42-9.45-.51-17.08-1.81-21.94-2.79,5.32-.97,15.87-3.74,24.33-12.53,5.66-5.89,8.11-12.11,9.93-16.87,3.5-9.18,4.04-16.98,4.27-23.43.54-14.78-.29-27.74-2.49-50.16-1.52-15.53-2.39-22.27-2.01-33.49.36-10.44,1.58-18.12,5.54-26.04,2.98-5.94,6.61-10.25,9.3-13.02,1.82-1.87,12.44-11.49,28.3-11.95,4.08-.12,7.45.41,9.74.9-1.34,0-2.9.1-4.6.42-4.15.78-7.29,2.48-9.28,3.8-3.3,2.31-5.22,4.67-6.33,6.29-10.34,15.14.31,39.4,6.83,57.01Z"/>
        </g>
        <path class="cls-2" d="M59.24,195.96c-4.46-.77-8.23-1.39-11.08-1.84-6.19-.98-7.52-1.12-9.33-1.13-2.31-.02-5.9-.01-10.27,1.41-1.62.53-4.32,1.57-7.25,3.56-1.17.8-3.64,2.6-6.06,5.55-.38.46-1.89,2.33-3.35,5.1-1.72,3.26-2.46,6.03-2.74,7.19-.61,2.53-.82,4.87-.83,6.88.46,1.64,1.05,3.43,1.82,5.33.59,1.45,1.22,2.78,1.84,3.99,1.29-2.31,3.13-5.45,5.55-9.06,2.61-3.89,4.42-6.61,7.37-9.83,4.89-5.33,9.51-8.42,10.46-9.05,5.85-3.86,10.94-5.55,12.02-5.9,4.73-1.53,8.89-2.04,11.83-2.21Z"/>
      </g>
    </g>
  </g>
</svg>