<?xml version="1.0" encoding="UTF-8"?>
<svg id="Capa_2" data-name="Capa 2" xmlns="http://www.w3.org/2000/svg" viewBox="0 0 184.86 144.38">
  <defs>
    <style>
      .cls-1 {
        fill: #fff;
      }
    </style>
  </defs>
  <g id="Capa_5" data-name="Capa 5">
    <path class="cls-1" d="M53.52,72.07c2.39.97,4.4,1.21,5.51,1.33,3.87.42,6.84-.29,7.6-.48,4.26-1.08,7.01-3.25,7.76-3.86,3.21-2.63,4.69-5.6,5.63-7.54.42-.86,1.17-2.53,2.56-8.65.66-2.9,1.15-5.38,2.53-13.21,1.21-6.83,1.31-7.62,1.83-10,.66-3,1.34-6.13,2.3-8.98,1.54-4.58,4.72-14.07,13.28-18.43,1.89-.96,5.38-2.36,10.5-2.24,1.75.29,4.48.98,7.29,2.79,2.74,1.77,4.28,3.8,6.17,6.3.79,1.04,1.91,2.63,5.23,8.64,1.54,2.78,2.3,4.17,3.79,7.06,3.11,6.06,9.69,15,15.36,20.09,11.36,10.19,26.67,11.69,34,11.89-1.14,2.45-5.85,11.86-16.91,16.65,0,0-10.5,4.55-23.03,1.24-3.85-1.02-8.24-3.77-10.42-4.96-.47-.26-2.05-1.1-3.82-1.81-2.17-.87-5.84-2.34-10.59-2.04-3.38.21-5.86,1.22-6.77,1.62-2.17.95-3.68,2.09-4.45,2.72-1.68,1.37-2.83,2.79-3.59,3.88-.95,1.4-2.28,3.5-3.63,6.19-2.78,5.58-3.83,10.13-5.48,18.54-2.92,14.91-3.03,17.88-5.36,25.11-2.25,6.96-3.82,9.34-4.74,10.6-1.7,2.33-7.29,10-15.58,9.87-6.13-.1-10.72-4.43-12.41-6.03-2.01-1.9-3.29-3.84-4.7-5.97-2.18-3.31-3.19-5.72-4.79-9.13-1.81-3.87-3.88-7.62-5.81-11.43-5.75-11.35-11.91-23.53-23.27-29.27-3.53-1.78-9.9-4.13-19.52-3.19,1.12-1.95,8.46-14.5,18.02-19.33,1.4-.71,4.06-2.05,7.83-2.45,1.74-.18,5.35-.55,9.22,1.1,1.7.72,3.31,1.99,6.51,4.53,2.44,1.93,2.35,2.08,4.95,4.15,3.17,2.53,4.81,3.81,7,4.7Z"/>
  </g>
</svg>